<svg id="Layer_1" data-name="Layer 1" xmlns="http://www.w3.org/2000/svg" viewBox="0 0 750 750">
    <defs>
        <style>.cls-1{fill:#55606c;}</style>
    </defs>
    <title>Charity</title>
    <path class="cls-1"
          d="M616.28,133.72A341.22,341.22,0,0,0,133.72,616.28,341.22,341.22,0,0,0,616.28,133.72Zm-18,464.53a316.11,316.11,0,0,1-85.88,61.18c-60.88,10.25-148-18.89-145.21-102,4.66-33.73,18.76-68.32,49-102.79,77.49-88.32,210.72-84.22,210.72-84.22s-96.7-11.56-181.55,39.19a209.85,209.85,0,0,0,9.29-49.2A150.62,150.62,0,0,0,480.33,334c.26,1.58.32,3.05.4,4.12.18,2.26,3.17,4.29,7.57,3.19-3.82,1.63-9.07,4.51-4.41,10.65s7.78,3.25,9.05,1.9a33.85,33.85,0,0,0,4-5c0,.1,0,.19,0,.29a14.32,14.32,0,0,0,.1,4.17.62.62,0,0,0,1.16.16,14.32,14.32,0,0,0,1.23-4c0-.1,0-.19,0-.29a33.85,33.85,0,0,0,2.48,5.86c.86,1.64,3.09,5.27,9.23.62s1.87-8.84-1.36-11.45c3.94,2.25,7.37,1.11,8.15-1s1.91-5.95,4.77-8.5,3.53-5.83.27-6.28c-7.61-1-17.43,6.33-21.59,10.51a7.56,7.56,0,0,0-.49-2.08,1.18,1.18,0,0,0-2-.28,7.56,7.56,0,0,0-1,1.87c-2-3.6-6.26-9.44-11.23-13,24.58-35.2,40.53-79.71,38.33-102.62-7.16,48-42.36,95.29-69.62,120.47.32-41.28-8.94-77.94-17.42-90.78,17.06,59.56,5.3,131.82-15.19,172.41a231,231,0,0,0-44.31,44.65c3.23-36.24-.26-89.52-17.3-140.86a403.37,403.37,0,0,1-.69-72.3c15.93-32.57,51-56,74-68.47-24.88,4.27-55.54,24.68-70.57,41.65,10.78-62.87,37.44-98.2,52.35-116.31-60.74,49.2-71.29,135.39-68.49,181.76-20.21-42.81-51.65-81-98.78-102.42,46.09,34.09,146.52,130.29,107,310.09-12-31.06-44.38-63.35-83.48-98.3-51.54-46.07-32.05-83.08-32.05-83.08-12.31,11.86-17,49,17.88,86.32,50.51,54.05,93.53,85.81,79.13,181.4-1,5.5-2,11.05-3,16.61-9.25,44.5-46.27,65.28-88.79,57.46a315.87,315.87,0,1,1,352.67-64.9ZM365.81,570.56c.3-4.37.74-8.75,1.35-13.15C367.15,557.46,366.6,562.43,365.81,570.56ZM345,168.59a9.14,9.14,0,0,0-2.47,6.73c.22,2.24-.06,4.48-3.76,3.92a64.09,64.09,0,0,0-8.86-1c2.92.62,8,3.59,9.19,5.38s-.78,3-.9,4.65a4.5,4.5,0,0,1-2,3.7c-1.46,1.23-2.19,5.66-4.37,5.66s-1.63-3.76-3.48-5.66-2.19-2.75-2.19-5.49c0-2.23-.09-5-.68-6.47a8.63,8.63,0,0,0-.37,2.26,5.51,5.51,0,0,1-.73,2.54.9.9,0,0,1-1.27,0,5.51,5.51,0,0,1-.73-2.54,8.63,8.63,0,0,0-.37-2.26c-.59,1.5-.68,4.23-.68,6.47,0,2.75-.34,3.59-2.19,5.49s-1.29,5.66-3.48,5.66-2.92-4.43-4.37-5.66a4.5,4.5,0,0,1-2-3.7c-.11-1.68-2.13-2.86-.9-4.65s6.28-4.77,9.19-5.38a64.08,64.08,0,0,0-8.86,1c-3.7.56-4-1.68-3.76-3.92a9.15,9.15,0,0,0-2.47-6.73c-1.63-1.63-.6-3.2,1.35-3.2,10.15,0,15.25,4.65,17.1,9.36a13.07,13.07,0,0,0,.69,1.5,3.86,3.86,0,0,1,1-1.78,1.87,1.87,0,0,1,2.22,0,3.86,3.86,0,0,1,1,1.78,13.07,13.07,0,0,0,.69-1.5c1.85-4.71,7-9.36,17.1-9.36C345.59,165.39,346.62,167,345,168.59Zm85.33,142.52a9.15,9.15,0,0,0-2.47,6.73c.22,2.24-.06,4.48-3.76,3.92a64.1,64.1,0,0,0-8.86-1c2.92.62,8,3.59,9.19,5.38s-.78,3-.9,4.65a4.5,4.5,0,0,1-2,3.7c-1.46,1.23-2.19,5.66-4.37,5.66s-1.63-3.76-3.48-5.66-2.19-2.75-2.19-5.49c0-2.23-.09-5-.68-6.47a8.62,8.62,0,0,0-.37,2.26,5.51,5.51,0,0,1-.73,2.54.9.9,0,0,1-1.27,0,5.51,5.51,0,0,1-.73-2.54,8.62,8.62,0,0,0-.37-2.26c-.59,1.5-.68,4.23-.68,6.47,0,2.75-.34,3.59-2.19,5.49s-1.29,5.66-3.48,5.66-2.92-4.43-4.37-5.66a4.5,4.5,0,0,1-2-3.7c-.11-1.68-2.13-2.86-.9-4.65s6.28-4.77,9.19-5.38a64.1,64.1,0,0,0-8.86,1c-3.7.56-4-1.68-3.76-3.92a9.14,9.14,0,0,0-2.47-6.73c-1.63-1.63-.6-3.2,1.35-3.2,10.15,0,15.25,4.65,17.1,9.36a13,13,0,0,0,.69,1.5,3.86,3.86,0,0,1,1-1.78,1.87,1.87,0,0,1,2.22,0,3.86,3.86,0,0,1,1,1.78,13.07,13.07,0,0,0,.69-1.5c1.85-4.71,7-9.36,17.1-9.36C430.93,307.91,432,309.48,430.33,311.11ZM226.05,396c-1.34,1.06-2.82-1.52-4.87-1.8a4.79,4.79,0,0,1-4-2.32,16.59,16.59,0,0,0-3.55-3.65,6.74,6.74,0,0,0,.86,1.57,4.31,4.31,0,0,1,.78,1.92c0,.31-.49.73-.78.61a4.31,4.31,0,0,1-1.68-1.21,6.74,6.74,0,0,0-1.32-1.21,16.59,16.59,0,0,0,2.71,4.31,4.79,4.79,0,0,1,1.31,4.44c-.22,2.07,1.94,4.11.6,5.16s-3.93-1.31-5.43-1.37a3.52,3.52,0,0,1-3-1.3c-.88-1-2.69-.73-2.8-2.43s1.56-6,3.05-7.75a50.12,50.12,0,0,0-5,4.87c-2,2.13-3.26.89-4.21-.6a7.15,7.15,0,0,0-4.77-2.94c-1.79-.21-1.91-1.67-.72-2.62,6.24-4.91,11.63-4.51,15-2.51a10.21,10.21,0,0,0,1.15.59,3,3,0,0,1-.23-1.59,1.46,1.46,0,0,1,1.36-1.07,3,3,0,0,1,1.49.6,10.21,10.21,0,0,0-.3-1.25c-1.14-3.79-.25-9.12,6-14,1.2-.94,2.59-.47,2.37,1.31a7.15,7.15,0,0,0,1.74,5.33c1.22,1.27,2.13,2.78-.41,4.23a50.16,50.16,0,0,0-5.91,3.7c2.09-1,6.63-1.64,8.26-1.14s1,2.21,1.7,3.29a3.52,3.52,0,0,1,.55,3.25C225.7,391.83,227.4,394.9,226.05,396ZM516.65,211.73a7.15,7.15,0,0,0-4.37,3.51c-.75,1.59-1.85,3-4.1,1.11a50.12,50.12,0,0,0-5.55-4.21c1.71,1.59,3.89,5.62,4,7.32s-1.72,1.67-2.48,2.76a3.52,3.52,0,0,1-2.85,1.67c-1.47.24-3.75,2.91-5.21,2s.43-3.17,0-5.2a4.79,4.79,0,0,1,.75-4.56,16.59,16.59,0,0,0,2.15-4.61,6.74,6.74,0,0,0-1.16,1.36,4.31,4.31,0,0,1-1.51,1.41.7.7,0,0,1-.85-.51,4.31,4.31,0,0,1,.54-2,6.74,6.74,0,0,0,.66-1.66,16.59,16.59,0,0,0-3.07,4.06,4.79,4.79,0,0,1-3.68,2.8c-2,.53-3.15,3.27-4.61,2.39s-.17-4.14-.65-5.56a3.52,3.52,0,0,1,.14-3.29c.6-1.17-.27-2.78,1.28-3.48s6.13-.66,8.33.1a50.12,50.12,0,0,0-6.32-2.93c-2.71-1.12-2-2.73-.93-4.15a7.15,7.15,0,0,0,1.06-5.5c-.43-1.75.89-2.38,2.19-1.6,6.8,4.09,8.34,9.27,7.68,13.17a10.16,10.16,0,0,0-.14,1.28,3,3,0,0,1,1.4-.78,1.46,1.46,0,0,1,1.49.89,3,3,0,0,1,0,1.6,10.19,10.19,0,0,0,1.06-.73c3.14-2.41,8.44-3.47,15.24.62C518.34,209.83,518.39,211.29,516.65,211.73ZM417.84,394.14a7.15,7.15,0,0,0-4.37,3.51c-.75,1.59-1.85,3-4.1,1.11a50.13,50.13,0,0,0-5.55-4.21c1.71,1.59,3.89,5.62,4,7.32s-1.72,1.67-2.48,2.76a3.52,3.52,0,0,1-2.85,1.67c-1.47.24-3.75,2.91-5.21,2s.43-3.17,0-5.2a4.79,4.79,0,0,1,.75-4.56,16.58,16.58,0,0,0,2.15-4.61,6.73,6.73,0,0,0-1.16,1.36,4.31,4.31,0,0,1-1.51,1.41.7.7,0,0,1-.85-.51,4.31,4.31,0,0,1,.54-2,6.74,6.74,0,0,0,.66-1.66,16.58,16.58,0,0,0-3.07,4.06,4.79,4.79,0,0,1-3.68,2.8c-2,.53-3.15,3.27-4.61,2.39s-.17-4.14-.65-5.56a3.52,3.52,0,0,1,.14-3.29c.6-1.17-.27-2.78,1.28-3.48s6.13-.66,8.33.1a50.12,50.12,0,0,0-6.32-2.93c-2.71-1.12-2-2.73-.93-4.15a7.15,7.15,0,0,0,1.06-5.5c-.43-1.75.89-2.38,2.19-1.6,6.8,4.09,8.34,9.27,7.68,13.17a10.16,10.16,0,0,0-.14,1.28,3,3,0,0,1,1.4-.78A1.46,1.46,0,0,1,402,390a3,3,0,0,1,0,1.6,10.19,10.19,0,0,0,1.06-.73c3.14-2.41,8.44-3.47,15.24.62C419.53,392.24,419.58,393.7,417.84,394.14Zm-189.5-80.76a32.44,32.44,0,0,1-5.56-1.39c-4.79-1.54-14.66-.32-21.21-7.2a32.28,32.28,0,0,0,1.52,3.56,24.43,24.43,0,0,1,2.15,6.78,1,1,0,0,1-1.78.9,24.43,24.43,0,0,1-4.2-5.75,32.23,32.23,0,0,0-2-3.33c1.67,9.35-5.16,16.58-6.74,21.36a32.43,32.43,0,0,1-2.17,5.31c-.46.85-1.83.64-1.64-.25.61-2.88-.33-6-2.89-9-4.5-5.28-1.68-11.43,4.41-17-6,3-9.56.5-10.63-1.61-4.72-9.32-16.72-6.58-14.89-10.76,1.94-4.47,18.22-6.71,27.86.83a14,14,0,0,1-.78-5.06,2,2,0,0,1,3.11-1.58,14,14,0,0,1,3.62,3.62c-.38-12.23,11.05-24,15.81-23,4.45,1-4.85,9.05-.13,18.38,1.07,2.11,1,6.48-5,9.52,8.08-1.63,14.7-.27,16.3,6.48.91,3.84,2.9,6.46,5.58,7.68C229.94,312.29,229.29,313.51,228.34,313.38ZM594.68,212.15a32.44,32.44,0,0,1-5.56-1.39c-4.79-1.54-14.66-.32-21.21-7.2a32.22,32.22,0,0,0,1.52,3.56,24.43,24.43,0,0,1,2.15,6.78,1,1,0,0,1-1.78.9,24.43,24.43,0,0,1-4.2-5.75,32.29,32.29,0,0,0-2-3.33c1.67,9.35-5.16,16.58-6.74,21.36a32.46,32.46,0,0,1-2.17,5.31c-.46.85-1.83.64-1.64-.25.61-2.88-.33-6-2.89-9-4.5-5.28-1.68-11.43,4.41-17-6,3-9.56.5-10.63-1.61-4.72-9.32-16.72-6.58-14.89-10.76,1.94-4.47,18.22-6.71,27.86.83a14,14,0,0,1-.78-5.06,2,2,0,0,1,3.11-1.58,14,14,0,0,1,3.62,3.62c-.38-12.23,11.06-24,15.81-23,4.45,1-4.85,9.05-.13,18.38,1.07,2.11,1,6.48-5,9.52,8.08-1.63,14.7-.27,16.3,6.48.91,3.84,2.9,6.46,5.58,7.68C596.28,211.06,595.63,212.28,594.68,212.15ZM257,333.48c9.38-2,19.8,5.15,25.13,9.71a9,9,0,0,1,.33-3.33,1.28,1.28,0,0,1,2.17-.47,9,9,0,0,1,1.68,2.9c3-6.36,9.49-17.2,18.87-19.23,2.83-.61,7.6-1.64,5.32,7.75s-.79,15.68-7.36,15.55c3.3,1.85,4.89,5.48,3.54,9.82-1.2,3.84-2.77,9.34,2.28,16.11a.51.51,0,0,1-.76.68c-3.29-3.11-4.16-7.42-7-5.62-3.05,1.93-6.62,1.5-8.33-4.54-1.4-4.93-2.93-9.47-5.39-11.94a19.44,19.44,0,0,0,.31,2,15.57,15.57,0,0,1,.23,4.53.67.67,0,0,1-1.25.27,15.57,15.57,0,0,1-1.66-4.22,19.5,19.5,0,0,0-.53-1.93c-1.21,3.27-.74,8,0,13.1.94,6.2-2.13,8.07-5.71,7.57-3.32-.46-2.33,3.82-4,8a.51.51,0,0,1-1-.3c1.8-8.25-1.91-12.61-4.58-15.61-3-3.39-3.08-7.36-.83-10.41-5.93,2.83-7.16-3.51-13.13-11.12S254.21,334.09,257,333.48Zm-48.14,99.8c-2.28,9.4-.79,15.68-7.36,15.55,3.3,1.85,4.89,5.48,3.54,9.82-1.2,3.84-2.77,9.34,2.28,16.11a.51.51,0,0,1-.76.68c-3.29-3.11-4.16-7.42-7-5.62-3.05,1.93-6.62,1.5-8.33-4.54-1.4-4.93-2.93-9.47-5.39-11.94a19.48,19.48,0,0,0,.31,2,15.56,15.56,0,0,1,.23,4.53.67.67,0,0,1-1.25.27,15.57,15.57,0,0,1-1.66-4.22A19.47,19.47,0,0,0,183,454c-1.21,3.27-.74,8,0,13.1.94,6.2-2.13,8.07-5.71,7.57-3.32-.46-2.33,3.82-4,8a.51.51,0,0,1-1-.3c1.8-8.25-1.91-12.61-4.58-15.61-3-3.39-3.08-7.36-.84-10.41-5.93,2.83-7.16-3.51-13.13-11.12s-1.2-8.64,1.64-9.26c9.38-2,19.8,5.15,25.13,9.71a9,9,0,0,1,.33-3.33,1.28,1.28,0,0,1,2.17-.47,9,9,0,0,1,1.68,2.9c3-6.36,9.49-17.2,18.87-19.23C206.43,424.92,211.19,423.89,208.91,433.28ZM566.45,395.1c-2.28,9.4-.79,15.68-7.36,15.55,3.3,1.85,4.89,5.48,3.54,9.82-1.2,3.84-2.77,9.34,2.28,16.11a.51.51,0,0,1-.76.68c-3.29-3.11-4.16-7.42-7-5.62-3.05,1.93-6.62,1.5-8.33-4.54-1.4-4.93-2.93-9.47-5.39-11.94a19.47,19.47,0,0,0,.31,2,15.56,15.56,0,0,1,.23,4.53.67.67,0,0,1-1.25.27,15.57,15.57,0,0,1-1.66-4.22,19.44,19.44,0,0,0-.53-1.93c-1.21,3.27-.74,8,0,13.1.94,6.2-2.13,8.07-5.71,7.57-3.32-.46-2.33,3.82-4,8a.51.51,0,0,1-1-.3c1.8-8.25-1.91-12.61-4.58-15.61-3-3.39-3.08-7.36-.84-10.41-5.93,2.83-7.16-3.51-13.13-11.12s-1.2-8.64,1.64-9.26c9.38-2,19.8,5.15,25.13,9.71a9,9,0,0,1,.33-3.33,1.28,1.28,0,0,1,2.17-.47,9,9,0,0,1,1.68,2.9c3-6.36,9.49-17.2,18.87-19.23C564,386.74,568.73,385.71,566.45,395.1Zm-54.75,68.29c-5.48,6.87-6,12.4-12.82,10.28,2.85,2.5,3.32,5.91.48,9-2.52,2.73-6,6.68-2.91,13.68.23.52-.69.8-1,.31-2.42-3.51-1.91-7.25-5.47-6.67-3.83.63-7.43-.81-7.23-6.2.16-4.4,0-8.53-1.71-11.27a13.08,13.08,0,0,0-.32,1.69,10.72,10.72,0,0,1-1.25,3.72.82.82,0,0,1-1.39-.16,10.72,10.72,0,0,1-.35-3.91,13.07,13.07,0,0,0,.08-1.71c-2.34,2.26-3.41,6.25-4.28,10.57-1.06,5.29-4.89,5.85-8.47,4.36-3.32-1.39-3.69,2.37-6.86,5.22-.44.39-1.26-.09-.92-.54,4.6-6.1,2.15-10.75.33-14-2.05-3.66-.8-6.87,2.55-8.64-7.14.47-6.35-5-10.09-13s1.59-7.33,4.76-7c10.49,1.23,19,10.2,23.12,15.51a6.61,6.61,0,0,1,1.44-2.59,1.63,1.63,0,0,1,2.43.29,6.61,6.61,0,0,1,.8,2.85c5.2-4.22,15.6-11,26.09-9.73C511.86,455.89,517.19,456.52,511.71,463.39Zm-247.05-188c5.36-3.21,12.61-2.1,16.45-1.08a3.91,3.91,0,0,1-.26-1.73,1,1,0,0,1,1.24-.74,3.91,3.91,0,0,1,1.41,1c.91-3.86,3.35-10.78,8.71-14,1.62-1,4.35-2.6,4.26,2.6s1.68,8-2.29,9.45a3.44,3.44,0,0,1,3.48,4c-.19,2.19-.39,5.29,3.58,7.47.29.16,0,.62-.37.52-2.41-.77-3.52-2.71-5-1.15s-3.78,2.3-5.63-.29c-1.52-2.12-3.06-4-4.88-4.66a7.73,7.73,0,0,0,.46.91,6.35,6.35,0,0,1,.76,2.19.48.48,0,0,1-.71.43,6.34,6.34,0,0,1-1.58-1.71,7.74,7.74,0,0,0-.58-.83c-.28,1.91.66,4.16,1.81,6.5,1.41,2.86-.18,4.51-2.4,5.11-2.06.55-.88,2.44-1.33,4.93-.06.34-.63.42-.63.08,0-4.52-2.88-5.82-4.9-6.68a3.44,3.44,0,0,1-1.93-5c-3.18,2.8-4.79-.06-9.42-2.44S263,276.36,264.65,275.39ZM438.08,170.7c-1.37,1.81-5,1.91-8.1-1.39,2.34,3.43,5.22,8.68-2,11.35s-8.31-1.45-8.66-3.27a33.87,33.87,0,0,1-.67-6.33l-.13.26a14.31,14.31,0,0,1-2.33,3.46.61.61,0,0,1-1.06-.49,14.31,14.31,0,0,1,1.11-4l.12-.26a33.87,33.87,0,0,1-5.25,3.6c-1.61.92-5.44,2.78-8.11-4.45s3.18-8.46,7.31-8.91c-4.53-.22-6.8-3-6.32-5.25s1.59-6,.56-9.73.17-6.82,3.16-5.44c7,3.21,11.28,14.72,12.54,20.48a7.55,7.55,0,0,1,1.53-1.49,1.18,1.18,0,0,1,1.86.85,7.56,7.56,0,0,1-.14,2.13c5.2-2.79,16.73-7,23.71-3.8,3,1.38,1.4,4.33-2.08,5.94S439.45,168.89,438.08,170.7ZM309.24,388.75c7,3.21,11.28,14.72,12.54,20.48a7.55,7.55,0,0,1,1.53-1.49,1.18,1.18,0,0,1,1.86.85,7.56,7.56,0,0,1-.14,2.13c5.2-2.79,16.73-7,23.71-3.8,3,1.38,1.4,4.33-2.08,5.94s-5.66,4.94-7,6.75-5,1.91-8.09-1.39c2.34,3.43,5.22,8.68-2,11.35s-8.31-1.45-8.65-3.27a33.86,33.86,0,0,1-.67-6.33l-.13.26a14.31,14.31,0,0,1-2.33,3.46.61.61,0,0,1-1.06-.49,14.31,14.31,0,0,1,1.11-4l.12-.26a33.88,33.88,0,0,1-5.25,3.6c-1.61.92-5.44,2.78-8.11-4.45s3.18-8.46,7.31-8.91c-4.53-.22-6.8-3-6.32-5.25s1.59-6,.56-9.73S306.25,387.38,309.24,388.75ZM245.85,466c5.74-3,15.62.09,20.11,2.23a6.37,6.37,0,0,1-.2-1.79,1,1,0,0,1,1.53-.8,6.38,6.38,0,0,1,1.35,1.19c.82-4.9,4-14.76,9.71-17.75,2.46-1.28,3.6,1.3,2.88,4.45s.37,6.32.86,8.16-1.3,4.3-5.11,4.67c3.5.21,8.47,1,6.52,7.2s-5.25,4.78-6.65,4.07a28.53,28.53,0,0,1-4.56-2.82l.11.22a12.06,12.06,0,0,1,1.1,3.34.52.52,0,0,1-.88.46,12.06,12.06,0,0,1-2.1-2.82l-.12-.21a28.53,28.53,0,0,1-.31,5.35c-.22,1.55-1,5.06-7.15,3.11s-4-6.49-2.16-9.47c-2.49,2.9-5.53,3-6.76,1.5s-3.2-4.18-6.19-5.39S243.39,467.3,245.85,466ZM147.75,395c-8.32-2.62-5.36-8.71-2.9-12.72-3.34,3.9-7.43,4-9.07,2s-4.3-5.61-8.31-7.24-6-4.88-2.67-6.59c7.71-4,21,.12,27,3a8.55,8.55,0,0,1-.27-2.4,1.33,1.33,0,0,1,2.05-1.07,8.54,8.54,0,0,1,1.81,1.6c1.1-6.59,5.33-19.82,13-23.84,3.3-1.72,4.84,1.75,3.87,6s.49,8.49,1.16,11-1.75,5.77-6.86,6.28c4.69.29,11.38,1.35,8.75,9.67s-7.05,6.42-8.93,5.47a38.31,38.31,0,0,1-6.13-3.79l.15.29a16.2,16.2,0,0,1,1.48,4.48.7.7,0,0,1-1.18.61,16.2,16.2,0,0,1-2.82-3.78l-.16-.29a38.31,38.31,0,0,1-.41,7.19C157.06,392.88,156.07,397.59,147.75,395ZM505.21,247.14c-5.43,3.61-19.53,10-22.38,4.23s-5.32-8.77-7.24-10.29c3.35,4.93,4.66,11.33,3.18,14.64s-5.19,1.93-7.15,2.33-2.92-.09-4.51,3.61-2.45,1-1.81-1.69.05-4-2.08-4-3.56-.71-2.27-2.43-3.3-2.61.68-5.18,7.53-5.14,4.93-9.59a7,7,0,0,0-2.15,2.43,17.71,17.71,0,0,1-3.38,3.9.76.76,0,0,1-1.23-.76,17.71,17.71,0,0,1,2-4.77,7,7,0,0,0,1.21-3c-5.14-.33-5.87,4.1-6.37,8.71s-3.36,1-4.32,2.93-2.18.94-3.19-.94-2.41-1.83-4.53-.06-4.91,2.22-2.32-.86,1.73-3.73,1.21-5.65-3.42-4.63-1.12-7.43,8.61-4.51,14.52-3.72c-2.22-1-6-1.89-12.45-1.86s-7-15.43-6.24-21.9,4.07-5.48,7.3-3.49c11.61,7.17,20.34,22.91,21.24,28.49a8.65,8.65,0,0,1,1.48-1,1.46,1.46,0,0,1,2.15,1.33,8.64,8.64,0,0,1-.25,1.78c5.4-1.7,23.38-.94,35,6.23C508.29,241,510.64,243.53,505.21,247.14Zm-249.59-34c2.72-.79,5.27-.86,4.56,4s-4.21,15.82-8.83,14.53-7.52-1.43-9.33-1.13c4.41.6,8.61,3.07,9.71,5.55s-1.52,3.85-2.28,5.13-1.5,1.57-.25,4.31-.67,1.86-1.84.16-2.18-2-3.27-.86-2.17,1.62-2.48,0-3.1.53-2.53-3,.91-6.75-2.86-7.53a5.22,5.22,0,0,0,.27,2.4,13.22,13.22,0,0,1,.47,3.82.57.57,0,0,1-1,.3,13.22,13.22,0,0,1-1.66-3.47,5.22,5.22,0,0,0-1.07-2.17c-2.75,2.69-.65,5.3,1.65,7.88s-1.12,2.37-.53,3.86-.57,1.68-2.11,1.3-2.22.42-2.3,2.49-1.22,3.83-1.64.86-1.2-2.82-2.53-3.49-4.28-.41-4.68-3.09,1.8-7,5.19-9.91c-1.68.72-4.06,2.4-7.25,6s-12.07-3.8-15.27-7.48-1-5,1.71-5.79c9.77-2.86,22.87.15,26.41,2.44a6.46,6.46,0,0,1,.17-1.33,1.09,1.09,0,0,1,1.81-.53,6.47,6.47,0,0,1,.86,1C236.44,225.58,245.84,216,255.62,213.12Zm-94.6-58c.8-6.47,4.07-5.48,7.3-3.49,11.61,7.17,20.34,22.91,21.24,28.49a8.66,8.66,0,0,1,1.48-1,1.46,1.46,0,0,1,2.15,1.33,8.65,8.65,0,0,1-.25,1.78c5.4-1.7,23.38-.94,35,6.23,3.23,2,5.58,4.47.15,8.09s-19.53,10-22.38,4.23-5.32-8.77-7.24-10.29c3.35,4.93,4.66,11.33,3.18,14.64s-5.19,1.93-7.15,2.33-2.92-.09-4.51,3.61-2.45,1-1.81-1.69.05-4-2.08-4-3.56-.71-2.27-2.43-3.3-2.61.68-5.18,7.53-5.14,4.93-9.59a7,7,0,0,0-2.15,2.43,17.71,17.71,0,0,1-3.38,3.9.76.76,0,0,1-1.23-.76,17.71,17.71,0,0,1,2-4.77,7,7,0,0,0,1.21-3c-5.14-.33-5.87,4.1-6.37,8.71s-3.36,1-4.32,2.93-2.18.94-3.19-.94-2.41-1.83-4.53-.06-4.91,2.22-2.32-.86,1.73-3.73,1.21-5.65-3.43-4.63-1.12-7.43,8.61-4.51,14.52-3.72c-2.22-1-6-1.89-12.45-1.86S160.21,161.65,161,155.17Zm432,150.64c.43,4.58-.33,15.46-4.86,15.3s-7.22.37-8.81,1c4.18-.43,8.59.9,10.15,2.92s-.54,3.87-.95,5.21-1,1.78.73,4-.2,1.85-1.65.56-2.44-1.36-3.2-.05-1.63,2-2.27.6-2.72,1.18-3-2.15-.67-6.39-4.3-6.27a4.93,4.93,0,0,0,.79,2.14,12.48,12.48,0,0,1,1.29,3.4.54.54,0,0,1-.89.51,12.49,12.49,0,0,1-2.3-2.82,4.93,4.93,0,0,0-1.46-1.75c-1.92,3.08.58,5,3.27,6.86s-.5,2.42.37,3.66-.15,1.67-1.65,1.66-1.94.88-1.55,2.79-.26,3.79-1.31,1.15-1.74-2.32-3.1-2.64-4,.58-5-1.79.08-6.85,2.55-10.25c-1.38,1-3.19,3.11-5.32,7.1s-11.93-.79-15.68-3.45-2-4.36.27-5.7c8.33-4.81,21-5,24.78-3.66a6.1,6.1,0,0,1-.14-1.26,1,1,0,0,1,1.54-.89,6.11,6.11,0,0,1,1,.75c.75-3.92,7.24-14.82,15.57-19.63C590.3,301.86,592.62,301.23,593.05,305.81Zm-53-12.61,2.35-13.7-10-9.7,13.76-2,6.15-12.47,6.15,12.47,13.76,2-10,9.7,2.35,13.7-12.3-6.47Z"/>
</svg>